<svg xmlns="http://www.w3.org/2000/svg" viewBox="0 0 100 100" width="48" height="48">
  <!-- 土壤层 -->
  <path d="M 10 55 Q 25 50 40 55 Q 55 60 70 55 Q 85 50 90 55 L 90 85 Q 90 90 85 90 L 15 90 Q 10 90 10 85 Z" fill="#8B4513"/>
  
  <!-- 土壤纹理 -->
  <ellipse cx="30" cy="70" rx="8" ry="4" fill="#6B3512" opacity="0.6"/>
  <ellipse cx="60" cy="75" rx="10" ry="5" fill="#6B3512" opacity="0.5"/>
  <ellipse cx="75" cy="65" rx="6" ry="3" fill="#6B3512" opacity="0.6"/>
  
  <!-- 小草/植物 -->
  <path d="M 30 55 Q 28 40 35 30" fill="none" stroke="#67c23a" stroke-width="3" stroke-linecap="round"/>
  <path d="M 30 55 Q 32 42 28 32" fill="none" stroke="#67c23a" stroke-width="2.5" stroke-linecap="round"/>
  
  <path d="M 55 55 Q 52 38 60 25" fill="none" stroke="#67c23a" stroke-width="3" stroke-linecap="round"/>
  <path d="M 55 55 Q 58 40 52 28" fill="none" stroke="#67c23a" stroke-width="2.5" stroke-linecap="round"/>
  
  <!-- 水滴（表示土壤湿度） -->
  <path d="M 78 40 Q 85 50 85 55 Q 85 62 78 62 Q 71 62 71 55 Q 71 50 78 40" fill="#409eff" opacity="0.7"/>
</svg>
